<svg id="Layer_5" data-name="Layer 5" xmlns="http://www.w3.org/2000/svg" viewBox="0 0 824.23 205.6"><defs><style>.cls-1{fill:#f48e06;}.cls-2{fill:#2c2c2c;}</style></defs><path class="cls-1" d="M926.5,313.32v66.51l-42.3,61.22-46.74-67.64-22.61-32.74v149c-24.15-2.13-43.08-22.79-43.08-48V361.47c0-56.47.05-48.15,47.19-48.15Z" transform="translate(-771.77 -312.89)"/><path class="cls-1" d="M997,385.73V468.3c.31,56.82,7.15,50.41-48.66,49.55H837.46V412.5L884.2,481l42.3-63.08,3.81-5.68V490.5h23.24v-154C978,339.1,997,360.15,997,385.73Z" transform="translate(-771.77 -312.89)"/><path class="cls-2" d="M1122.77,463.75h-51.63l-12.32,31.09h-25L1097,343.1l63,151.74h-24.83Zm-8.22-20.33-17.6-44.2-17.59,44.2Z" transform="translate(-771.77 -312.89)"/><path class="cls-2" d="M1293.68,494.84v-77l-45.37,67.66-45.56-67.66v77h-22.68V343.1l68.24,101.68,68.24-101.68V494.84Z" transform="translate(-771.77 -312.89)"/><path class="cls-2" d="M1363.3,483.31a43.13,43.13,0,0,1-12.91-15.65,48.88,48.88,0,0,1-4.89-22.09V349.75h22.69v95.82c0,8.6,3.12,15.25,9,19.75,5.48,4.3,13.49,6.84,22.1,6.84,8.41,0,16.42-2.54,22.09-6.84,5.87-4.5,8.8-11.15,8.8-19.75V349.75h22.88v95.82a51.51,51.51,0,0,1-4.89,22.09,47.42,47.42,0,0,1-12.9,15.65c-9.58,7.43-22.29,11.53-36,11.53S1372.88,490.74,1363.3,483.31Z" transform="translate(-771.77 -312.89)"/><path class="cls-2" d="M1504.68,401.57v93.27H1482V342.91l91.12,99.92V349.75H1596V501.49Z" transform="translate(-771.77 -312.89)"/></svg>